<svg xmlns="http://www.w3.org/2000/svg" xmlns:xlink="http://www.w3.org/1999/xlink" width="53.491" height="59.789" viewBox="0 0 53.491 59.789"><defs><linearGradient id="a" x1="0.895" x2="0.088" y2="1.084" gradientUnits="objectBoundingBox"><stop offset="0" stop-color="#bcffee"/><stop offset="1" stop-color="#46d191"/></linearGradient><filter id="b" x="0" y="0" width="53.491" height="59.789" filterUnits="userSpaceOnUse"><feOffset dx="2" dy="5" input="SourceAlpha"/><feGaussianBlur stdDeviation="5" result="c"/><feFlood flood-color="#72e2b3" flood-opacity="0.667"/><feComposite operator="in" in2="c"/><feComposite in="SourceGraphic"/></filter><linearGradient id="d" x1="1.698" y1="0.102" x2="-0.437" y2="1.13" gradientUnits="objectBoundingBox"><stop offset="0" stop-color="#81e8bf"/><stop offset="1" stop-color="#3eaa7d"/></linearGradient></defs><g transform="translate(13 10)"><g transform="translate(0)"><g transform="matrix(1, 0, 0, 1, -13, -10)" filter="url(#b)"><path d="M464.764,268.618v-20.5a4.645,4.645,0,0,1,4.645-4.645h14.2a4.645,4.645,0,0,1,4.645,4.645v25.144H469.409A4.645,4.645,0,0,1,464.764,268.618Z" transform="translate(-451.76 -233.47)" fill="url(#a)"/></g><path d="M540.617,297.322V281.476a3.149,3.149,0,0,1,3.149-3.149h0a3.149,3.149,0,0,1,3.149,3.149v11.378a4.468,4.468,0,0,1-4.468,4.469Z" transform="translate(-517.126 -267.533)" fill="url(#d)"/><g transform="translate(9.563 10.359)"><path d="M9.765,2.527,1.049,2.1A1.049,1.049,0,0,1,0,1.049H0A1.049,1.049,0,0,1,1.049,0L9.765.43a1.049,1.049,0,0,1,1.049,1.049h0A1.049,1.049,0,0,1,9.765,2.527Z" transform="matrix(0.643, -0.766, 0.766, 0.643, 0, 8.284)" fill="#fff"/></g><g transform="translate(6.309 13.889)"><path d="M5.051,2.1l-4,.068A1.049,1.049,0,0,1,0,1.117H0A1.049,1.049,0,0,1,1.049.068l4-.068A1.049,1.049,0,0,1,6.1,1.049h0A1.049,1.049,0,0,1,5.051,2.1Z" transform="translate(4.313 5.845) rotate(-135)" fill="#fff"/></g></g></g></svg>